<svg width="106" height="40" viewBox="0 0 106 40" fill="none" xmlns="http://www.w3.org/2000/svg">
<g id="logo-horizontal" clip-path="url(#clip0_5689_259)">
<g id="Vector">
<path d="M39.7075 9.2977H47.9716C49.2834 9.2977 50.4195 9.50901 51.3777 9.92954C52.3359 10.3522 53.0661 10.9484 53.5703 11.7184C54.0725 12.4904 54.3256 13.3879 54.3256 14.4131C54.3256 15.4383 54.1101 16.2752 53.6791 17.0367C53.2481 17.7983 52.6456 18.3904 51.8756 18.8109C51.1036 19.2335 50.2249 19.449 49.2395 19.4574L49.2688 18.8967C50.409 18.9155 51.4133 19.154 52.2794 19.608C53.1456 20.062 53.8193 20.6876 54.2984 21.4826C54.7775 22.2777 55.016 23.1794 55.016 24.1836C55.016 25.3344 54.7587 26.3386 54.2482 27.2006C53.7356 28.0626 53.0012 28.7279 52.043 29.1986C51.0848 29.6673 49.9487 29.9037 48.6369 29.9037H39.7137V9.2977H39.7075ZM42.5821 26.8156H47.6975C48.8273 26.8156 49.6893 26.5562 50.2835 26.0394C50.8777 25.5227 51.1748 24.7695 51.1748 23.784C51.1748 22.8551 50.8902 22.1417 50.3191 21.6437C49.7479 21.1458 48.9319 20.8968 47.8691 20.8968H42.9253V17.8359H47.4528C48.4193 17.8359 49.1746 17.587 49.7165 17.089C50.2584 16.5911 50.5283 15.8818 50.5283 14.9613C50.5283 14.1474 50.25 13.5156 49.6956 13.0636C49.1391 12.6138 48.4026 12.3879 47.482 12.3879H42.5382L43.4588 11.7979V27.5625L42.5821 26.8156Z" fill="white"/>
<path d="M56.3634 9.2977H60.0143V29.9058H56.3634V9.2977Z" fill="white"/>
<path d="M61.9412 9.16798H65.8641V12.6745H61.9412V9.16798ZM62.0709 14.8169H65.7218V29.9058H62.0709V14.8169Z" fill="white"/>
<path d="M71.672 29.7405C70.992 29.4476 70.4648 28.981 70.0903 28.3387C69.7158 27.6964 69.5296 26.8533 69.5296 25.8093V17.633H66.9436V14.8169H67.2595C67.9018 14.8169 68.4249 14.7186 68.8329 14.5219C69.2408 14.3252 69.5463 14.0072 69.7534 13.5658C69.9585 13.1243 70.0819 12.5406 70.1196 11.8125L70.1907 10.3312H73.1658V15.1161L72.7055 14.8148H76.4568V17.6309H73.1658V25.4201C73.1658 26.0729 73.329 26.5353 73.6554 26.8135C73.9818 27.0918 74.4462 27.2299 75.0488 27.2299C75.4609 27.2299 75.8438 27.1859 76.1995 27.1002V29.9016C75.8919 29.9874 75.5676 30.0543 75.2224 30.1025C74.8772 30.1506 74.5132 30.1736 74.1303 30.1736C73.1721 30.1736 72.354 30.0271 71.672 29.7363V29.7405Z" fill="white"/>
<path d="M77.9527 27.0458L86.9199 16.2814V17.6748H77.9381V14.8148H90.1816V17.7167L81.0283 28.5521V27.029H90.441V29.9037H77.9527V27.0437V27.0458Z" fill="white"/>
<path d="M93.3512 35.5526C92.9914 35.5045 92.6587 35.4334 92.3533 35.3371V32.2051C92.6022 32.3013 92.8617 32.3704 93.1295 32.4143C93.3973 32.4583 93.6651 32.4792 93.935 32.4792C94.4434 32.4792 94.8806 32.3829 95.2489 32.1926C95.6171 32.0001 95.9456 31.6925 96.2343 31.2657C96.5209 30.8389 96.8034 30.2531 97.0816 29.5062L97.3829 31.2594L91.3051 14.819H95.2426L99.5672 27.9391H98.1005L102.053 14.819H105.86L100.429 30.5544C100.027 31.7239 99.5483 32.6779 98.9918 33.4207C98.4353 34.1634 97.7888 34.7157 97.0523 35.0798C96.3138 35.4438 95.4623 35.6258 94.4936 35.6258C94.0919 35.6258 93.7111 35.6007 93.3512 35.5547V35.5526Z" fill="white"/>
<path fill-rule="evenodd" clip-rule="evenodd" d="M7.96336 9.25867C8.83189 8.39015 10.24 8.39015 11.1086 9.25867L20.2117 18.3618C20.6288 18.7789 20.8631 19.3446 20.8631 19.9344C20.8631 20.5242 20.6288 21.0899 20.2117 21.507L11.1086 30.6101C10.24 31.4787 8.83189 31.4787 7.96336 30.6101C7.09484 29.7416 7.09484 28.3335 7.96336 27.4649L15.4939 19.9344L7.96336 12.4039C7.09484 11.5354 7.09484 10.1272 7.96336 9.25867Z" fill="white"/>
<path fill-rule="evenodd" clip-rule="evenodd" d="M0.00390625 8.16792C0.00390625 3.65699 3.66089 0 8.17182 0H18.0177C26.6335 0 30.9501 10.4192 24.8563 16.5129L23.7119 17.6574C22.8434 18.5259 21.4352 18.5259 20.5667 17.6574C19.6982 16.7889 19.6982 15.3807 20.5667 14.5122L21.7111 13.3677C25.0029 10.0759 22.6706 4.448 18.0177 4.448H8.17182C6.11746 4.448 4.45191 6.11355 4.45191 8.16792V31.6988C4.45191 33.7532 6.11746 35.4187 8.17182 35.4187H18.0177C22.672 35.4187 25.0034 29.7912 21.7111 26.499L20.5667 25.3546C19.6982 24.486 19.6982 23.0779 20.5667 22.2093C21.4352 21.3408 22.8434 21.3408 23.7119 22.2093L24.8563 23.3538C30.9496 29.4471 26.6362 39.8667 18.0177 39.8667H8.17182C3.66089 39.8667 0.00390625 36.2097 0.00390625 31.6988V8.16792Z" fill="white"/>
</g>
</g>
<defs>
<clipPath id="clip0_5689_259">
<rect width="105.984" height="40" fill="white"/>
</clipPath>
</defs>
</svg>
