<?xml version="1.0" encoding="UTF-8"?> <svg xmlns="http://www.w3.org/2000/svg" width="151" height="45" viewBox="0 0 151 45" fill="none"><path d="M36.2774 14.899C34.6479 11.7169 31.9926 9.17762 28.741 7.69173C25.4895 6.20584 21.8317 5.86029 18.3594 6.71096C14.8871 7.56163 11.8032 9.55878 9.60669 12.3794C7.41014 15.2 6.22931 18.6791 6.25521 22.254C6.2811 25.8289 7.51219 29.2906 9.74936 32.0791C11.9865 34.8676 15.099 36.8198 18.5832 37.6201C22.0675 38.4204 25.7199 38.0219 28.9496 36.4891C32.1793 34.9563 34.7975 32.3787 36.3807 29.1734L22.139 22.139L36.2774 14.899Z" fill="white"></path><path d="M44.8381 23.5592C44.8381 20.0392 47.1581 17.8192 50.4381 17.8192C53.2381 17.8192 55.2181 19.3592 55.7981 22.0192H52.1581C51.8781 21.2392 51.3181 20.7392 50.3781 20.7392C49.1581 20.7392 48.3181 21.6992 48.3181 23.5592C48.3181 25.4192 49.1581 26.3792 50.3781 26.3792C51.3181 26.3792 51.8581 25.9192 52.1581 25.0992H55.7981C55.2181 27.6792 53.2381 29.2992 50.4381 29.2992C47.1581 29.2992 44.8381 27.0992 44.8381 23.5592ZM56.9475 23.5392C56.9475 20.0192 59.1275 17.8192 61.8675 17.8192C63.5275 17.8192 64.7075 18.5792 65.3075 19.5592V17.9792H68.7275V29.1392H65.3075V27.5592C64.6875 28.5392 63.5075 29.2992 61.8475 29.2992C59.1275 29.2992 56.9475 27.0592 56.9475 23.5392ZM65.3075 23.5592C65.3075 21.7792 64.1675 20.7992 62.8675 20.7992C61.5875 20.7992 60.4275 21.7592 60.4275 23.5392C60.4275 25.3192 61.5875 26.3192 62.8675 26.3192C64.1675 26.3192 65.3075 25.3392 65.3075 23.5592ZM71.7417 25.2592V20.8192H70.3817V17.9792H71.7417V15.2592H75.1617V17.9792H77.4017V20.8192H75.1617V25.2992C75.1617 25.9592 75.4417 26.2392 76.2017 26.2392H77.4217V29.1392H75.6817C73.3617 29.1392 71.7417 28.1592 71.7417 25.2592ZM78.6467 23.5392C78.6467 20.0192 80.8267 17.8192 83.5667 17.8192C85.2267 17.8192 86.4067 18.5792 87.0067 19.5592V17.9792H90.4267V29.1392H87.0067V27.5592C86.3867 28.5392 85.2067 29.2992 83.5467 29.2992C80.8267 29.2992 78.6467 27.0592 78.6467 23.5392ZM87.0067 23.5592C87.0067 21.7792 85.8667 20.7992 84.5667 20.7992C83.2867 20.7992 82.1267 21.7592 82.1267 23.5392C82.1267 25.3192 83.2867 26.3192 84.5667 26.3192C85.8667 26.3192 87.0067 25.3392 87.0067 23.5592ZM92.9009 29.1392V14.3392H96.3209V29.1392H92.9009ZM98.1193 23.5392C98.1193 20.0192 100.299 17.8192 103.039 17.8192C104.699 17.8192 105.879 18.5792 106.479 19.5592V17.9792H109.899V29.1392H106.479V27.5592C105.859 28.5392 104.679 29.2992 103.019 29.2992C100.299 29.2992 98.1193 27.0592 98.1193 23.5392ZM106.479 23.5592C106.479 21.7792 105.339 20.7992 104.039 20.7992C102.759 20.7992 101.599 21.7592 101.599 23.5392C101.599 25.3192 102.759 26.3192 104.039 26.3192C105.339 26.3192 106.479 25.3392 106.479 23.5592ZM120.074 29.1392V23.0792C120.074 21.5592 119.234 20.7192 117.934 20.7192C116.634 20.7192 115.794 21.5592 115.794 23.0792V29.1392H112.374V17.9792H115.794V19.4592C116.474 18.5192 117.674 17.8592 119.174 17.8592C121.754 17.8592 123.474 19.6192 123.474 22.6192V29.1392H120.074ZM129.47 27.4592C129.47 28.4792 128.65 29.2992 127.45 29.2992C126.23 29.2992 125.41 28.4792 125.41 27.4592C125.41 26.3992 126.23 25.5792 127.45 25.5792C128.65 25.5792 129.47 26.3992 129.47 27.4592ZM130.815 23.5392C130.815 20.0192 132.995 17.8192 135.735 17.8192C137.395 17.8192 138.575 18.5792 139.175 19.5592V17.9792H142.595V29.1392H139.175V27.5592C138.555 28.5392 137.375 29.2992 135.715 29.2992C132.995 29.2992 130.815 27.0592 130.815 23.5392ZM139.175 23.5592C139.175 21.7792 138.035 20.7992 136.735 20.7992C135.455 20.7992 134.295 21.7592 134.295 23.5392C134.295 25.3192 135.455 26.3192 136.735 26.3192C138.035 26.3192 139.175 25.3392 139.175 23.5592ZM145.069 29.1392V17.9792H148.489V29.1392H145.069ZM146.789 16.8192C145.569 16.8192 144.749 15.9992 144.749 14.9792C144.749 13.9392 145.569 13.1192 146.789 13.1192C147.989 13.1192 148.809 13.9392 148.809 14.9792C148.809 15.9992 147.989 16.8192 146.789 16.8192Z" fill="white"></path></svg> 