<?xml version="1.0" encoding="UTF-8"?>
<svg xmlns="http://www.w3.org/2000/svg" xmlns:xlink="http://www.w3.org/1999/xlink" version="1.1" viewBox="278 345 1362 346">
  <defs>
    <style>
      .cls-1 {
        clip-rule: evenodd;
        fill: none;
      }

      .cls-2 {
        clip-path: url(#clippath);
      }
    </style>
    <clipPath id="clippath">
      <path class="cls-1" d="M333.77,446.24c0,3.88-3.14,7.02-7.02,7.02h-16.78c-7.73,0-14,6.27-14,14l-.02,126.31c0,7.71,6.23,13.97,13.94,14l16.57.07c3.61.02,6.84,2.61,7.27,6.19.51,4.26-2.81,7.88-6.97,7.88h-19.37c-14.04,0-25.41-11.38-25.41-25.41v-131.8c0-13.97,11.32-25.29,25.29-25.29h19.49c3.88,0,7.02,3.14,7.02,7.02h0ZM521.37,446.24c0,3.88,3.14,7.02,7.02,7.02h16.78c7.73,0,14,6.27,14,14l.02,126.31c0,7.71-6.23,13.97-13.94,14l-16.77.08c-3.05.01-5.88,1.91-6.78,4.82-1.49,4.82,2.08,9.25,6.68,9.25h21.36c12.94,0,23.42-10.49,23.42-23.42v-135.65c0-12.94-10.49-23.42-23.42-23.42h-21.36c-3.88,0-7.02,3.14-7.02,7.02h0ZM406.55,398.51h-22.71c-4.45,0-8.07,3.61-8.07,8.07v247.79c0,4.45,3.61,8.07,8.07,8.07h22.42c3.6,0,6.84,2.59,7.26,6.17.5,4.26-2.81,7.87-6.97,7.87h-24.81c-11.03,0-19.97-8.94-19.97-19.97v-252.07c0-11.03,8.94-19.97,19.97-19.97h24.52c3.6,0,6.84,2.59,7.26,6.17.5,4.26-2.81,7.87-6.97,7.87h0ZM448.59,398.51h22.71c4.45,0,8.07,3.61,8.07,8.07v247.79c0,4.45-3.61,8.07-8.07,8.07h-22.42c-3.6,0-6.84,2.59-7.26,6.17-.5,4.26,2.81,7.87,6.97,7.87h24.81c11.03,0,19.97-8.94,19.97-19.97v-252.07c0-11.03-8.94-19.97-19.97-19.97h-24.58c-3.34,0-6.4,2.22-7.09,5.49-.96,4.54,2.48,8.55,6.86,8.55h0ZM654.37,479.97c0,4.23,3.43,7.65,7.65,7.65h31.47v93.11c0,4.15,2.76,7.94,6.81,8.84,5.77,1.29,10.87-3.07,10.87-8.61v-93.34h31.56c2.73,0,5.32-1.46,6.51-3.92,2.77-5.74-1.34-11.38-6.76-11.38h-80.46c-4.23,0-7.65,3.43-7.65,7.65h0ZM777,481.24v99.95c0,3.23,1.78,6.28,4.71,7.64,6.64,3.1,13.14-1.67,13.14-7.95v-40.73c0-1.66,1.34-3,3-3h55.22c1.66,0,3,1.34,3,3v40.66c0,3.87,2.41,7.43,6.11,8.57,6.13,1.88,11.74-2.65,11.74-8.49v-99.56c0-3.87-2.41-7.43-6.11-8.57-6.13-1.88-11.74,2.65-11.74,8.49v37.6c0,1.66-1.34,3-3,3h-55.22c-1.66,0-3-1.34-3-3v-37.72c0-3.54-2.08-6.83-5.38-8.12-6.4-2.49-12.46,2.17-12.46,8.24h0ZM909.61,483.52v96.84c0,5.22,4.23,9.44,9.44,9.44h69.71c3.04,0,5.89-1.75,7-4.58,2.16-5.5-1.83-10.72-7.05-10.72h-58.26c-1.66,0-3-1.34-3-3v-31.35c0-1.66,1.34-3,3-3h51.6c3.04,0,5.89-1.75,7-4.58,2.16-5.5-1.83-10.72-7.05-10.72h-51.55c-1.66,0-3-1.34-3-3v-28.22c0-1.66,1.34-3,3-3h55.23c3.64,0,6.98-2.42,7.73-5.98,1.05-4.95-2.7-9.32-7.47-9.32h-65.12c-6.19,0-11.2,5.01-11.2,11.2h0ZM1027.33,483.5v97.03c0,4.78,3.6,8.97,8.37,9.25,5.18.31,9.47-3.79,9.47-8.9v-74.99h.65l32.89,77c1.79,4.19,5.91,6.92,10.48,6.92h0c4.77,0,9.08-2.85,10.96-7.23l32.76-76.68h.65v74.69c0,4.49,3.18,8.51,7.62,9.14,5.5.78,10.22-3.48,10.22-8.83v-96.32c0-6.76-5.48-12.24-12.24-12.24h-.48c-5.1,0-9.71,3.03-11.73,7.72l-37.27,86.4h-.49l-37.54-86.68c-1.96-4.52-6.41-7.44-11.33-7.44h-1.83c-6.17,0-11.18,5-11.18,11.18h0ZM1187.45,481.16v99.5c0,4.45,3.15,8.43,7.55,9.05,5.45.77,10.12-3.44,10.12-8.75v-100.33c0-2.89-1.48-5.64-4.02-7.02-6.8-3.71-13.66,1.12-13.66,7.55h0ZM1282.08,470.02c-12.44,0-22.75,2.8-30.94,8.39-8.68,5.92-12.93,13.99-12.93,24.35s4.42,18.1,13.42,23.53c3.6,1.97,12.44,5.1,26.85,9.71,12.93,3.95,20.63,6.58,23.24,7.9,7.37,3.78,11.13,8.88,11.13,15.47,0,5.27-2.62,9.38-7.86,12.34-5.24,2.96-12.28,4.61-21.12,4.61-9.82,0-17.02-1.81-21.77-5.43-3.93-2.96-6.75-7.5-8.47-13.47-1.09-3.78-4.46-6.44-8.39-6.44h-.24c-5.85,0-10.14,5.54-8.66,11.2,2.41,9.22,7.1,16.35,14.13,21.38,8.02,5.59,19.15,8.56,33.39,8.56s26.19-2.96,34.38-8.88c8.18-6.09,12.28-14.31,12.28-24.84s-5.07-19.25-15.06-25.34c-4.58-2.8-14.9-6.58-30.61-11.52-10.97-3.29-17.68-5.76-20.3-7.24-5.89-3.13-8.68-7.24-8.68-12.5,0-5.92,2.46-10.2,7.53-12.83,4.09-2.3,9.99-3.46,17.68-3.46,8.84,0,15.39,1.65,19.97,5.1,3.27,2.35,5.71,5.88,7.44,10.46,1.34,3.57,4.66,6,8.47,6h0c6.12,0,10.53-5.98,8.61-11.79-2.31-6.98-6.15-12.47-11.58-16.51-7.69-5.92-18.33-8.72-31.92-8.72h0ZM1583.13,395.71c31.39,0,56.84,25.45,56.84,56.84v163.2c0,28.11-22.79,50.91-50.91,50.91h-167.75c-28.11,0-50.91-22.79-50.91-50.91v-169.13c0-28.11,22.79-50.91,50.91-50.91h161.81ZM1581.17,405.56h-157.89c-23.78,0-43.07,19.28-43.07,43.07v165.11c0,23.78,19.28,43.07,43.07,43.07h163.82c23.78,0,43.07-19.28,43.07-43.07v-159.17c0-27.06-21.94-49-49-49h0ZM1491.65,480.32l40.8,102.38c1.29,3.24-1.1,6.76-4.58,6.76h0c-2.23,0-4.22-1.37-5.03-3.44l-11.68-30.14c-.34-.89-1.19-1.47-2.14-1.47h-52.58c-1.3,0-2.47.8-2.94,2.01l-11.5,29.65c-.79,2.04-2.75,3.38-4.94,3.38h0c-3.52,0-5.93-3.55-4.62-6.82l41.92-105.19c1.32-3.3,4.51-5.47,8.07-5.47h0c3.56,0,6.76,2.17,8.08,5.48l1.14,2.86ZM1566.35,471.99c2.76,0,4.99,2.24,4.99,4.99v107.61c0,1.9-1.09,3.68-2.84,4.42-3.64,1.54-7.15-1.09-7.15-4.54v-107.49c0-2.76,2.24-4.99,4.99-4.99h0ZM1482.27,482.85h0l-23.49,59.88c-.59,1.51.52,3.14,2.14,3.14h43.03c1.62,0,2.73-1.63,2.14-3.13l-23.33-59.88h-.49Z"/>
    </clipPath>
  </defs>
  <!-- Generator: Adobe Illustrator 28.6.0, SVG Export Plug-In . SVG Version: 1.2.0 Build 709)  -->
  <g>
    <g id="Layer_1">
      <g class="cls-2">
        <polygon points="278 345 1640 345 1640 691 278 691 278 345"/>
      </g>
    </g>
  </g>
</svg>
